<svg xmlns="http://www.w3.org/2000/svg" width="604" height="533">
<path style="fill:#010101; stroke:none;" d="M0 0L0 237C14.5789 229.437 27.5218 212.322 38.1304 200C70.2114 162.739 95.9314 119.361 102.87 70C104.845 55.9493 106.187 41.195 104.83 27C104.008 18.3997 99.681 8.23389 103 0L0 0z"/>
<path style="fill:#254ba5; stroke:none;" d="M0 327C13.2886 318.697 24.8702 307.468 37 297.611C69.2285 271.421 96.5951 245.846 107.105 204C116.056 168.362 111 127.524 111 91C111 67.9889 110 45.0522 110 22C110 17.6929 112.447 1.4845 106.856 0.376526C97.7708 -1.42419 102.746 13.864 103.41 18C107.321 42.334 104.314 67.2457 98.3735 91C88.261 131.44 65.5515 166.335 39.0802 198C32.1081 206.34 24.746 214.814 16.5756 222C11.7188 226.271 3.08381 232.082 0.603395 238.17C-2.29693 245.288 0 257.352 0 265L0 327z"/>
<path style="fill:#010101; stroke:none;" d="M109 0C113.691 19.7043 109.155 42.7925 110.039 63C112.723 124.284 120.089 192.164 87.9884 247C73.2262 272.218 46.1269 289.467 24 307.75C16.0487 314.32 0.366069 321.727 0 333C11.7348 326.249 22.1885 316.518 33 308.374C66.2643 283.319 103.418 254.012 107 209L108 209C108 221.906 109.085 235.306 106.332 248C101.342 271.007 83.2079 294.091 65 308.113C49.6282 319.95 32.9625 329.972 17 340.975C8.8476 346.594 0.0383131 350.16 0 361L49 328.025L81.5748 302.961L100.753 274L110 256C110 275.647 108.898 295.388 108.039 315C107.197 334.247 107.061 353.009 94.4823 369C89.2235 375.685 78.178 388.16 69 389.073C63.7338 389.597 56.9882 383.458 52 381.699C39.8087 377.399 28.2855 379.457 17 385.259C11.4741 388.1 3.94095 392.247 1.02778 398.004C-1.65005 403.295 0 412.196 0 418L0 460C0 465.556 -1.5388 473.924 1.02778 478.996C5.91125 488.647 20.3102 495.25 29 501C18.0749 501.666 9.43522 495.405 0 491C2.84212 496.559 9.18765 499.326 15 501L15 502L0 499L2 501L2 502C-3.27359 506.608 0 526.084 0 533L321 533L321 515C333.638 524.633 341 515.947 341 503C318.424 503 315.313 490.145 313.05 470C312.557 465.612 309.574 457.077 312.618 453.318C315.944 449.211 325.3 451 330 451C325.572 459.297 328.621 474.896 330.224 483.999C330.798 487.26 333.678 492.984 337.786 490.288C348.488 483.264 333.287 458.458 344.148 452.028C348.189 449.635 355.45 451 360 451C348.585 472.39 374.406 522.008 342 531.362C338.197 532.46 333.917 532 330 532L330 533L604 533L604 0L109 0z"/>
<path style="fill:#018181; stroke:none;" d="M103 65L104 66L103 65M110 67L111 68L110 67M36 201L37 202L36 201z"/>
<path style="fill:#b59143; stroke:none;" d="M107 209C102.423 244.442 78.6354 273.032 51 294.116C39.3668 302.991 27.7049 311.848 16 320.627C11.3318 324.128 3.92285 327.959 1.02778 333.171C-1.75742 338.184 0 347.389 0 353C10.6076 347.717 20.123 339.254 30 332.667C66.5104 308.317 107.997 280.061 108 231C108 224.314 109.599 215.194 107 209z"/>
<path style="fill:#018181; stroke:none;" d="M16 222L17 223L16 222M96 231L97 232L96 231M95 233L96 234L95 233z"/>
<path style="fill:#ed1d25; stroke:none;" d="M108 256C97.6123 292.337 69.7065 313.441 40 333.656C31.057 339.742 22.0005 345.666 13 351.667C9.13226 354.245 3.32574 356.869 1.02778 361.093C-3.61442 369.628 0 388.334 0 398C11.5768 389.941 23.6172 378.4 39 379.209C48.5928 379.714 62.9055 391.742 71 388.987C113.381 374.563 108.944 317.973 109 283C109.014 273.999 110 265.047 110 256L108 256z"/>
<path style="fill:#018181; stroke:none;" d="M80 258L81 259L80 258z"/>
<path style="fill:#254ba5; stroke:none;" d="M148 282L148 409C153.505 408.448 158.459 405.566 164 405.213C176.363 404.426 187.645 408.356 199 400.892C220.986 386.44 219.718 348.528 195 337C196.172 332.569 197.099 328.631 196.985 324C196.289 295.5 163.491 299.695 150 282L148 282z"/>
<path style="fill:#018181; stroke:none;" d="M161 292L162 293L161 292M35 298L36 299L35 298M29 303L30 304L29 303z"/>
<path style="fill:#010101; stroke:none;" d="M168 314L168 338C182.814 334.438 181.062 319.061 168 314z"/>
<path style="fill:#018181; stroke:none;" d="M379 318L380 319L379 318z"/>
<path style="fill:#254ba5; stroke:none;" d="M364 332L364 333C368.496 339.251 367 347.596 367 355C367 372.369 367.365 389.71 366 407L382 407L381 386C388.481 391.284 392.493 397.798 392 407L408 407C407.917 397.009 404.723 383.741 395 379C400.445 371.238 405.193 365.875 406 356L390 356C391.497 363.184 386.753 367.207 382 372C382 355.485 385.676 333.82 381 318L364 332M459 407L475 407L474 386C481.743 390.514 486.283 397.967 485 407L502 407C499.744 394.889 496.852 386.045 488 377C495.598 372.708 498.341 364.278 499 356L484 356C483.823 363.317 479.978 367.008 475 372L475 318C469.876 319.985 461.234 325.619 459.237 331.015C457.425 335.911 460 346.444 460 352C460 370.202 461.282 388.941 459 407z"/>
<path style="fill:#018181; stroke:none;" d="M372 324L373 325L372 324M364 331L365 332L364 331z"/>
<path style="fill:#010101; stroke:none;" d="M168 340L168 387C182.243 387 202.637 377.78 190.297 360.04C184.244 351.339 173.549 349.596 168 340z"/>
<path style="fill:#018181; stroke:none;" d="M205 346L206 347L205 346M175 349L176 350L175 349z"/>
<path style="fill:#254ba5; stroke:none;" d="M262 407C256.567 394.423 257.874 368.887 262 356C252.991 356 234.664 353.045 227.043 357.858C217.088 364.146 212.412 395.612 222.185 403.15C231.517 410.347 250.726 407 262 407M267 356L268 407L284 407C284 397.652 282.692 387.234 284.148 378.004C284.772 374.048 288.771 370.007 292.566 373.478C300.381 380.624 288.933 399.897 296.603 405.972C299.861 408.553 308.031 407 312 407C307.817 393.805 315.352 373.31 307.347 362.015C300.275 352.036 278.107 356 267 356M343 406C343 421.878 335.109 427.595 320 420L320 440C329.559 436.516 342.699 439.707 350.895 433.351C357.958 427.873 357.999 417.087 358 409C358.001 391.818 355.595 372.648 360 356C350.807 356 330.255 352.635 323.39 359.394C318.759 363.955 318.377 370.982 317.41 377C316.551 382.35 314.499 388.582 315.344 394C317.429 407.361 332.582 407.934 343 406M424 356.44C409.011 358.878 404.427 387.294 411.533 398.91C416.824 407.558 428.959 408.241 438 406.532C455.517 403.221 456.697 372.803 446.606 361.108C441.293 354.952 431.39 355.238 424 356.44z"/>
<path style="fill:#018181; stroke:none;" d="M390 357L391 358L390 357M213 361L214 362L213 361M390 362L391 363L390 362z"/>
<path style="fill:#010101; stroke:none;" d="M239.118 369.217C232.269 372.172 230.846 398.188 240.812 394.238C247.707 391.505 246.825 365.891 239.118 369.217M337.223 369.137C330.667 372.303 329.416 399.291 338.945 394.914C344.961 392.15 343.753 378.475 342.852 373.044C342.402 370.334 340.242 367.678 337.223 369.137z"/>
<path style="fill:#018181; stroke:none;" d="M428 369L429 370L428 369z"/>
<path style="fill:#010101; stroke:none;" d="M429.221 369.801C422.227 372.33 422.814 398.01 431.907 395.149C439.765 392.676 437.803 366.698 429.221 369.801z"/>
<path style="fill:#018181; stroke:none;" d="M398 374L399 375L398 374z"/>
<path style="fill:#254ba5; stroke:none;" d="M137 375C129.277 387.091 114.899 387.964 104 395.927C87.6305 407.888 83 430.884 83 450L58 446C58.1153 459.741 66.9112 465.991 80 466C75.2035 480.086 64.7292 492.749 50 497C53.4475 502.198 61.3003 502.055 67 501.996C87.8794 501.78 97.5164 483.772 99 465L119 466C119 478.184 120.466 490.576 116 502L141 502C136.434 489.472 139 473.225 139 460L139 375L137 375z"/>
<path style="fill:#018181; stroke:none;" d="M317 376L318 377L317 376M489 376L490 377L489 376M188 382L189 383L188 382M436 387L437 388L436 387M243 392L244 393L243 392M485 401L486 402L485 401M414 402L415 403L414 402M474 404L475 405L474 404M226 405L227 406L226 405z"/>
<path style="fill:#010101; stroke:none;" d="M101 450C109.452 451.145 115.517 455.642 118 464L119 464L119 407C104.019 412.096 102.698 436.637 101 450z"/>
<path style="fill:#018181; stroke:none;" d="M107 419L108 420L107 419z"/>
<path style="fill:#254ba5; stroke:none;" d="M150.043 425.858C137.766 431.128 146.16 450.346 158.985 444.991C171.492 439.768 162.815 420.376 150.043 425.858M362 485L362 504C369.559 501.641 377.703 503.643 384.996 501.146C407.2 493.543 384.213 472.797 378 464C390.921 463.112 392 464.525 392 450C382.422 451.211 367.883 448.43 362.009 458.015C354.61 470.09 370.154 476.115 375.048 484.169C378.121 489.226 372.358 489.701 369.002 488.045C366.572 486.846 364.632 485.677 362 485z"/>
<path style="fill:#018181; stroke:none;" d="M108 451L109 452L108 451z"/>
<path style="fill:#254ba5; stroke:none;" d="M147 502L166 502C159.313 489.844 161.493 464.503 164 451L150.589 452.028L148 466L147 502M169 451C172.47 465.575 171.73 487.297 169 502L186 502C183.214 486.992 181.438 464.575 202 468C199.622 455.237 198.371 447.159 184 455L184 451L169 451M204 451C211.344 468.331 201.947 493.823 226 502L234 482L236 482L244 502C265.874 491.98 260.043 469.737 265 451L245 451L246 470L245 470C240.075 452.938 229.726 454.36 224 470L223 470L225 451L204 451M310 502C304.001 488.501 304.973 464.788 310 451L293 453C273.395 443.565 267.671 462.677 265.95 478C265.365 483.203 263.742 489.224 266.742 493.995C274.351 506.097 297.703 502 310 502M341 503C341 516.997 333.774 522.291 321 515L321 533C327.66 532.996 335.501 533.025 342 531.61C355.021 528.774 358 517.46 358 506C358 489.793 353.645 465.998 360 451C355.463 451 347.225 449.421 343.318 452.028C333.677 458.461 347.971 482.158 337.786 489.454C333.665 492.406 330.792 486.236 330.224 483C328.566 473.553 326.217 459.927 330 451C325.561 451 315.98 449.201 312.604 452.603C309.096 456.138 312.46 465.642 312.95 470C314.183 480.976 314.169 498.474 327 502.351C331.356 503.667 336.497 503 341 503z"/>
<path style="fill:#018181; stroke:none;" d="M188 452L189 453L188 452M272 454L273 455L272 454M222 456L223 457L222 456M230 458L231 459L230 458z"/>
<path style="fill:#010101; stroke:none;" d="M287.209 463.851C280.321 466.183 279.044 492.113 287.971 489.338C295.732 486.926 295.148 461.164 287.209 463.851z"/>
<path style="fill:#018181; stroke:none;" d="M78 470L79 471L78 470z"/>
<path style="fill:#ed1d25; stroke:none;" d="M0 479C0 494.356 13.5196 502.659 29 501L0 479z"/>
<path style="fill:#018181; stroke:none;" d="M374 482L375 483L374 482M376 485L377 486L376 485M282 487L283 488L282 487M90 490L91 491L90 490z"/>
<path style="fill:#b59143; stroke:none;" d="M0 493C0.27563 501.29 7.97675 501.854 15 502L15 501L0 493z"/>
<path style="fill:#018181; stroke:none;" d="M307 495L308 496L307 495M308 499L309 500L308 499z"/>
<path style="fill:#254ba5; stroke:none;" d="M0.666667 501.333L1.33333 501.667L0.666667 501.333z"/>
<path style="fill:#018181; stroke:none;" d="M353 524L354 525L353 524z"/>
</svg>
