<svg xmlns="http://www.w3.org/2000/svg" height="600" width="1000" viewBox="0 0 676.0026 688.515"><path d="M216.616 242.994v109.2c1.221 0 4.092-1.617 5.362-2.167 1.648-.734 3.596-1.204 5.525-1.3 4.75-.3 9.469.387 14.083.541 8.823.27 15.41-2.07 21.45-7.204 2.666-2.296 4.562-5.18 6.23-8.016 7.61-13.036 3.298-27.256-6.067-37.484-2.007-2.2-5.428-5.872-8.017-6.933 0-.492 1.181-1.808 1.463-2.33.494-1.012.786-2.095 1.029-3.195 1.512-7.237-1.409-14.218-5.471-19.283-3.926-4.883-9.246-7.33-14.733-9.317-2.589-.859-5.217-1.662-7.854-2.492-1.91-.569-3.953-1.07-5.688-2.112-1.842-1.129-3.345-2.68-4.712-4.388-.844-1.06-1.746-2.198-2.221-3.52zm16.466 26.379c4.886 2.605 11.42 6.956 10.238 13.758-.369 1.959-1.195 3.683-2.6 5.092-1.31 1.215-2.947 2.046-4.604 2.654-.67.241-1.36.463-2.059.704-.32 0-.083.488-.054.758.32 2.326 1.142 4.363 2.654 6.013 1.154 1.225 2.705 1.795 4.063 2.654 4.275 2.779 9.486 4.776 12.404 9.262 4.013 6.156 3.067 16.184-3.196 20.584a17.116 17.116 0 01-4.496 2.22c-.911.242-1.787.518-2.708.759-.475.038-1.018.066-1.57.162-2.609-.096-5.228-.124-7.855-.162v-.217c-.398 0-.217-1.179-.217-1.516v-62.726zm183.3 4.604c-1.745 1.988-4.01 3.424-5.959 5.2-2.56 2.21-5.068 4.437-7.637 6.608v.217h-.217v.217c1.047 0 1.781 1.474 2.004 2.275.272 1.032.09 2.47.109 3.629v44.145c0 2.837.56 11.917-.759 13.596v.217h-.216v.162h13.433c0-.337-.362-.705-.488-.975a7.513 7.513 0 01-.433-2.275c-.262-5.278-.054-10.41-.054-15.87.252 0 .217-.025.217.216.804 0 1.737.812 2.329 1.246 4.479 3.088 7.218 7.368 8.07 12.675.253 1.341.395 3.408-.216 4.604 0 .212.035.217-.217.217v.162h13.434c0-1.891-.356-3.626-.705-5.362-1.328-6.562-4.062-13.054-9.316-17.55-.766-.666-1.526-1.328-2.438-1.734v-.379c.737 0 1.723-1.12 2.275-1.516 4.954-4.063 7.695-10.122 7.909-16.684h-8.83c-1.095 0-2.685-.196-3.412.325-.02.03 0 .026 0 .054h-.108c.135.58.199 1.155.325 1.734v2.329c-.398 3.145-5.317 8.346-8.342 9.533v.217h-.38v-34.83c0-1.92.33-11.574-.378-12.403zm80.383 0c-4.528 3.937-9.084 7.862-13.65 11.808-.262 0-.163.154-.163.434.95 0 1.677 1.57 1.842 2.275.02 1.34.025 2.72.054 4.062v43.929c0 2.808.599 11.7-.758 13.38v.216h-.163v.162h13.488c0-.241 0-.162-.271-.162-.097-.454-.278-.974-.433-1.409-.097-.694-.174-1.382-.271-2.058 0-5.162-.054-10.33-.054-15.491h.379c0 .308.65.55.92.704 5.197 2.865 9.232 8.391 9.426 14.625.048 1.186.101 2.467-.325 3.412 0 .212.045.217-.217.217v.162h13.433c0-7.67-3.824-16.912-8.991-22.046-1.047-1.032-2.168-2.078-3.467-2.6v-.379c.873 0 2.068-1.317 2.708-1.896 4.654-4.37 7.227-9.675 7.421-16.304-1.59 0-11.61-.236-12.133.217-.116.039.43 3.604.216 4.55-.736 3.02-5.345 8.147-8.341 9.208v.217h-.433v-43.983c0-1.062.103-2.391-.217-3.25zm-156.216 32.879c-1.193.396-2.505.504-3.63 1.083-.901.425-1.787.974-2.708 1.409v.162h-.162c0-.579-1.112-2.063-1.625-2.275-.95-.425-2.46-.217-3.575-.217h-6.5c-.94.039-1.882.08-2.871.109-.175.096-.402.184-.596.27-.184.55.957 2.004 1.083 2.709 0 1.495.045 2.96.054 4.387v35.588h.163c0 .308.881.162 1.192.162h11.158v-21.016c0-1.863-.389-5.388.27-6.825.98-2.2 3.8-3.638 6.176-3.088 1.415.338 3.104 1.679 3.52 3.088.495 1.61.163 3.978.163 5.85v14.516c0 1.698-.346 4.014.217 5.471.3.859 1.21 1.639 2.112 1.842 1.173.29 2.586.124 3.846.162h8.233v-.162c-.97 0-1.528-2.033-1.625-2.709-.048-1.736-.108-3.428-.108-5.145v-16.684c0-4.785.129-9.263-2.004-12.891-.67-1.197-1.888-2.337-2.925-3.196-1.26-1.1-2.556-1.918-4.117-2.275-1.784-.405-3.783-.325-5.741-.325zm-48.534.108c-1.284-.009-2.62.054-3.845.054-.825.28-1.643.454-2.438.705-1.435.54-3.333 2.017-4.225 3.358-3.539 5.066-3.574 12.396-4.767 18.687-.242 1.776-.51 3.558-.704 5.363-.203 1.428-.42 3.108-.216 4.604.358 2.47 1.767 4.684 3.629 6.392 3.626 3.3 9.745 4.758 15.058 3.9.746-.155 1.492-.363 2.112-.759.572-.366 1.15-1.137 1.896-1.137.766-.03 1.137.821 1.68 1.246a3.744 3.744 0 001.787.812c3.858.029 7.689.016 11.537.054v-.162c-2.045 0-2.232-7.3-2.058-9.046.272-2.837.163-5.946.163-8.937v-13.759c0-2.412-.396-5.664.108-7.854.223-1.071 1.06-2.45 1.787-3.25v-.217h-9.425c-1.105 0-2.54-.179-3.412.217-.805.338-1.131 1.134-1.354 1.896h-.217v-.217c-.368 0-.818-.53-1.137-.704-.747-.396-1.554-.747-2.33-.92-1.12-.247-2.344-.317-3.629-.326zm84.825 0c-1.287-.015-2.595.054-3.846.054-.804.28-1.584.463-2.437.705-1.6.646-3.492 2.054-4.442 3.52-3.354 5.037-3.342 11.85-4.496 17.93-.63 3.203-1.494 7.433-1.029 10.887.184 1.486.97 2.905 1.842 4.062 3.46 4.458 9.214 6.546 15.166 6.121 2.356-.212 4.497-.987 6.717-1.354v9.046c-.03 1.187.128 2.479-.162 3.52-.136.609-.44 1.118-.867 1.572-1.28 1.302-2.585 1.35-4.117 2.112-4.188 0-11.802.448-14.245-2.437h-.163v-.217c-.368 0-.217 1.179-.217 1.517v14.57h.217c0-2.412 7.146-2.008 9.046-2.22 3.52-.396 7.248-.109 10.67-.813 3.976-.82 7.979-3.708 9.588-7.53 2.598-5.924 2.167-13.429 2.167-20.637V315.09c0-1.457-.119-3.094.162-4.387.262-1.187 1.09-2.176 1.517-3.304.32 0 .27-.1.27-.38h-8.883c-1.221 0-2.71-.179-3.737.217-.882.25-1.269 1.105-1.463 1.896-.445 0-1.173-.778-1.57-1.03-.67-.24-1.316-.482-2.005-.703-1.105-.304-2.396-.418-3.683-.434zm82.875 0c-1.49.003-2.953.054-4.388.054-.523.164-1.012.273-1.516.38-5.43 0-9.126 4.605-10.454 9.208-.96 3.3-1.158 7.063-1.517 10.508-.388 3.397-.982 7.412-.488 11.05.62 4.178 3.532 8.145 7.313 10.075 4.993 2.528 13.148 2.65 18.741 1.03 4.111-1.226 7.712-4.446 9.263-8.45 1.997-4.883.3-13.602-.38-18.85-.222-2.017-.472-4.11-1.083-5.905-.707-2.18-1.957-4.416-3.683-6.066-2.872-2.707-7.337-3.044-11.808-3.034zm-165.425 9.859c2.007 0 3.878-.018 4.984 1.516.572.772.73 17.062.216 18.471-.504 1.428-1.883 2.925-3.25 3.63-.504.211-1.003.383-1.516.595-2.308 0-4.111-.854-4.984-2.87-.591-1.38-.456-2.713-.379-4.334.049-4.854.695-12.451 3.196-15.925.446-.647 1.132-.775 1.733-1.083zm84.663 0c1.783 0 4.072-.117 4.983 1.408.65.917.66 17.872.108 19.175-.92 1.988-2.4 2.847-4.116 4.062-2.075 0-3.482-.22-4.713-1.841-2.676-3.725-.404-18.425 2.058-21.667.485-.646 1.01-.8 1.68-1.137zm79.245.541c1.774 0 3.352-.009 4.496 1.246 2.046 2.171 1.874 7.384 2.058 10.617.087 1.38.283 2.988.109 4.387-.146 1.92-.649 3.716-1.463 5.309-.688 1.254-1.833 1.754-2.87 2.545-1.775 0-3.17-.059-4.334-1.245-2.87-2.876-2.243-9.118-2.058-13.325.135-2.837.21-5.983 1.733-8.125.591-.888 1.457-.955 2.33-1.409zm-250.79 5.58c-.495 1.312-1.407 2.554-2.222 3.683-4.023 5.278-10.058 6.9-15.816 9.1-3.733 1.408-7.404 3.304-10.671 5.687-11.042 7.903-15.284 20.902-17.387 33.908-.67 4.005-1.355 8.12-1.355 12.405h-.162c0 .299-2.257.186-2.654.379-.989 0-2.254-.204-3.088.162-3.587 0-6.827.029-9.804-.975-1.997-.666-3.62-1.92-5.579-2.654v-.162h-.162c0 6.6 2.442 11.166 8.016 14.408 1.726.974 3.654 1.93 5.796 2.112 1.871.184 3.815.018 5.58-.108 0 1.293-1.215 4.108-1.68 5.363-3.267 8.722-9.72 15.525-18.037 19.77-1.92.975-3.9 2.142-6.013 2.817v.38c.553.27 1.107.478 1.68.757.872.31 1.673.651 2.545.921 3.636.82 7.93 1.22 12.08.921 16.713-1.312 23.765-16.604 24.753-31.85 3.335 0 6.78-.88 10.184-.541 1.435.144 2.926.32 4.225.812.911.367 1.781.73 2.654 1.03 0-1.525-.825-3.264-1.3-4.605-2.463-6.387-7.582-8.117-14.03-8.937.476-3.06.988-6.067 1.463-9.155 1.503-8.085 4.39-28.182 14.842-28.491v72.8c0 1.775.235 3.933-.163 5.525-.261 1.186-1.146 2.642-2.329 3.25 0 .337 1.744.216 2.113.216h18.85v-.216c-.912 0-1.658-1.265-1.842-1.95-.66-2.017-.325-4.86-.325-7.204v-92.138c0-2.19.439-5.5-.162-7.42zm12.674 43.333v.216c-1.367 0-2.803.8-3.791 1.571-6.777 5.432-2.68 16.876 6.229 15.708 9.375-1.196 10.83-14.409 1.95-17.062-1.348-.396-2.778-.433-4.388-.433zm205.508 21.45c-.679.299-1.395.583-2.113.92-.446.058-.869.15-1.354.217h-8.07c-1 0-2.417-.15-3.25.217-3.84 0-7.525 1.887-9.696 4.82-4.43 5.896-.468 12.701 4.495 16.792 3.268 2.683 6.776 3.91 8.017 8.396.31 1.1.17 2.124-.596 2.925-1.9 1.853-7.417-.728-9.046-1.896-.862-.733-1.702-1.487-2.545-2.22v-.163c-.466 0-.36.77-.38 1.137-.01 4.767 0 9.559 0 14.354h.38c0-.25.051-.263.216-.379 1.639-1.042 3.694-.975 5.904-.975h7.475c1.067-.029 2.165-.089 3.25-.108 2.822-.618 5.36-2.492 7.096-4.875 6.215-8.82-1.516-16.084-7.691-21.883-1.387-1.322-4.136-2.468-4.117-4.659 0-.743.192-1.213.812-1.57.592-.406 1.417-.62 2.221-.38 2.24.589 2.938 1.95 5.904 1.95.737 0 1.433-.099 2.005-.379.736-.299 1.125-.92 1.3-1.625.252-1.129.355-10.192-.217-10.616zm-35.262.812c-3.083.027-6.033.24-6.663.867-1.328 1.283-.867 4.114-.867 6.12v15.492c0 3.204.42 7.021-.812 9.588-1.067 2.2-1.96 2.245-3.792 3.412-3.025 0-4.676-2.98-5.47-5.362-.796-2.413-.68-6.255-.921-8.938-.524-6.05-1.057-12.105-1.571-18.146.029-1.158.597-2.283 1.625-2.708v-.217h-12.675c-.882.608-1.626 1.125-2.004 2.167-.475 1.37-.12 3.122.054 4.55.426 3.232.854 6.463 1.3 9.696 1.338 7.237 1.291 19.413 6.662 24.266 1.028.888 2.147 1.441 3.359 2.059 1.6.79 3.39 1.538 5.416 1.625 2.637.144 6.152.438 8.45-.759h.38v6.5c-.078 3.127-.11 5.518-2.6 7.313-1.164.83-2.517.826-3.738 1.462-3.723 0-8.569.074-10.78-3.033h-.216v-.217c-.32 0-.108 1.046-.108 1.355v13.379h.325c0-.338.373-.322.596-.38 1.144-.492 2.621-.35 4.008-.379 2.259-.067 4.775-.09 7.15-.216 1.61-.049 3.446-.083 4.929-.488 4.624-1.216 10.86-5.405 12.837-10.075 2.056-4.979 1.409-11.633 1.409-17.712v-34.992c0-1.466-.255-3.238.162-4.55.175-.588.614-1.074 1.138-1.354v-.217c-1.29 0-4.5-.134-7.584-.108zm-46.367.054c-.749.01-1.476.119-2.004.38-.766.308-1.02 1.007-1.408 1.624v.163h-.109c0-.319-.585-.55-.866-.704-2.812-1.621-6.283-1.409-9.967-1.409-.863.3-1.762.562-2.654.813-1.319.511-3.053 1.767-3.954 2.925-1.106 1.476-2.017 3.277-2.492 5.091-1.396 5.346-1.993 11.072-2.817 16.63-.368 2.508-1.058 5.67-.379 8.179.65 2.499 2.408 4.728 4.55 6.445 3.054 2.413 9.951 3.83 14.246 2.817.775-.154 1.418-.334 2.058-.758.514-.338.966-1 1.625-1.03.824-.057 1.13.803 1.625 1.246.514.406 1.088.633 1.68.759 1.463.029 2.933.08 4.387.108h7.258v-.162c-.33 0-.53-.4-.704-.65-1.512-2.51-1.246-5.988-1.246-9.317v-19.5c.049-3.232.114-6.479.163-9.75.164-1.158 1.04-2.741 1.787-3.629v-.217h-8.558c-.684 0-1.472-.063-2.221-.054zm-125.07.054c-1.047.705-1.63 1.292-1.95 2.546-.068 1.061-.085 2.125-.163 3.196v27.354c0 2.22.393 6.793-.325 8.558-.233.55-.577.891-.975 1.354h-.27v.217h15.6v-.217c-2.996 0-2.276-6.612-2.276-8.937v-21.612c-.048-3.146-.593-6.955-.108-10.13.155-.849.46-1.716 1.246-2.112v-.217h-10.78zm15.762 0c1.357 2.046.758 8.359.758 11.321-.02 9.89 0 19.739 0 29.63-.097.732-.264 1.355-.758 1.895v.162h-.217v.217h13.867v-.217c-1.309 0-.975-7.432-.975-8.937v-8.992c0-1.833-.318-4.024.108-5.741.844-3.426 3.663-5.884 6.988-6.771 2.268-.618 5.515.332 7.096 1.625h.216c-.436-3.242-.844-6.543-1.3-9.804-.135-.801-.08-1.964-.487-2.6-.563-.82-1.6-1.212-2.492-1.463-4.043-1.158-6.773 1.242-9.37 3.683-1.833 0-1.355-2.6-1.355-4.008h-12.079zm30.117 0c.523.521.988.934 1.191 1.571.533 1.65.253 3.701.38 5.525.184 3.425.392 6.866.595 10.292.592 9.822 3.707 16.493 11.104 22.533 1.26 1.042 2.49 2.45 3.955 3.087 0 .3.196.217.487.217.504-1.312.949-2.667 1.463-4.008 1.192-2.866 2.328-5.776 3.52-8.613a503.767 503.767 0 011.734-4.008c.339-.521.936-.909 1.625-.813.465.097.856.446 1.137.813 1.105 1.746 1.677 3.988 2.492 5.85 1.512 3.416 3.213 7.2 4.279 10.78h.38c0-.252.184-.255.378-.38 1.833-1.187 3.504-2.797 5.2-4.225a86.076 86.076 0 012.763-2.546c1.56-1.988 2.874-4.271 4.008-6.5 3.044-5.857 3.02-15.271 3.358-22.479.059-1.862-.018-3.639.38-5.308.126-.676.57-1.233 1.191-1.571v-.217h-11.32c-1.687 0-3.563-.17-4.93.38-.116.24.476.67.65.92 1.26 1.467.978 9.825.542 12.025-.29 1.428-.586 2.919-.867 4.28h-.216c-.446-.879-.959-1.792-1.463-2.709-1.493-2.75-2.951-5.616-4.929-8.125-.93-1.216-2.048-2.266-2.98-3.52-2.685 0-8.395 12.062-9.966 14.137v.216h-.216c-.31-1.428-.62-2.92-.921-4.387-.437-2.933-.394-6.4-.054-9.37.077-.541.13-1.14.216-1.68.194-.676.728-1.324 1.3-1.788v-.162h.271v-.217H264.77zm70.85 9.75c1.706 0 3.793-.012 4.82 1.3.281.396.42.859.488 1.409v11.862c0 1.775.402 4.354-.325 5.85-.572 1.293-1.71 2.482-2.98 3.196-.504.241-.958.463-1.462.704-1.726 0-3.251-.313-4.28-1.625-2.8-3.763-.508-18.15 1.897-21.45.484-.637 1.192-.937 1.841-1.246z" fill="#254aa5"/><path d="M182.446 220.97c.369 1.13-.203 2.142.175 3.05 0 1.746.029 3.425.029 5.19-.33 8.154-.853 16.182-.853 24.306 0 7.546-.369 12.766-.369 17.648.04 1.283-.223 8.124-.174 9.379.048 4.178-.834 8.028-1.357 11.993-1.639 12.95-7.834 24.432-17.693 33.135-3.5 3.049-7.087 5.616-10.975 7.844-1.221.59-2.453 1.226-3.693 1.834-.136.029-.243.087-.417.087h-.504a488.177 488.177 0 00-6.04-3.812c-4.237-2.44-9.104-4.313-14.155-5.046-2.414-.328-5.235-.695-7.862-.328-15.88 2.016-31.983 14.29-39.264 28.426-2.21 4.274-3.916 8.577-4.847 13.556-.601 3.484-.66 7.941-.242 11.637 1.29 13.682 6.224 24.817 15.715 34.283 5.05 5.007 10.296 9.07 15.9 12.862 2.054 1.273 4.178 2.586 6.204 3.907.203.087.368.087.368.396h.233v.174c-8.357-.27-17.887-5.124-24.218-9.485-4.634-3.242-9.132-6.32-13.252-10.575-2.278-2.287-4.188-4.883-5.943-7.44-2.026-3-4.169-5.953-5.73-9.195-4.382-9.1-6.844-20.581-6.117-32.112.446-6.908 2.007-13.315 4.16-19.336 1.201-3.358 3.111-6.388 4.914-9.437 9.346-15.294 25.769-24.981 39.991-34.591 9.18-6.147 18.333-12.4 27.533-18.565 8.803-5.953 17.547-11.752 25.129-19.761 6.883-7.324 12.419-15.901 16.471-24.663 1.687-3.724 5.487-11.54 6.883-15.36" fill="#ed1c24"/><path d="M181.08 180.512c.368 1.033.213 2.5.213 3.783v8.24c0 5.288-.214 11.694-.825 16.644-1.415 11.212-6.553 19.732-12.108 28.89-1.93 3.135-4.12 5.982-6.156 9.002-1.833 2.653-3.81 5.374-6.098 7.719-3.742 3.86-7.824 7.362-11.954 10.479-6.602 4.91-12.981 9.735-19.961 13.952-7.107 4.274-13.873 9.099-20.728 13.74-14.639 9.832-29.704 21.102-39.893 36.116-2.9 4.255-4.877 8.983-6.71 13.74-2.888 7.459-4.488 16.278-3.906 25.406.504 8.279 3.044 15.727 5.991 22.78 1.968 4.546 4.198 8.974 7.145 13.066 3.345 4.863 7.863 9.407 12.497 13.344 4.74 4.033 9.471 7.729 14.561 11.087.698.492 7.184 3.628 7.95 3.628 0 .067-4.537-.82-4.537-.695-9.249-1.92-17.906-6.909-24.848-12.553-16.995-13.982-28.328-33.25-29.346-55.81-.397-7.873.058-15.544 2.598-22.144 10.364-26.863 35.619-47.598 58.527-64.754 7.989-6.079 15.977-12.158 23.966-18.17 5.148-3.907 10.315-7.815 15.482-11.732a341.528 341.528 0 014.625-4.545c8.24-8.24 15.492-16.972 21.367-26.563 1.667-2.74 3.393-5.471 4.818-8.327 2.511-5.201 4.508-10.933 5.652-16.8.62-3.116 1.503-6.261 1.677-9.523" fill="#b49142"/><path d="M178.627 0c1.512 0 2.995 0 3.839 1.254 1.018 1.457.543 5.645.543 7.758.077 10.489.542 114.128.542 120.65.146 7.189-.067 15.883-.174 23.158-.29 19.626-6.99 37.177-15.55 52.664-3.268 5.828-5.963 11.82-10.597 17.01-3.286 3.687-6.602 7.353-10.237 10.779-7.145 6.648-14.678 12.553-22.24 18.38-7.853 6.533-15.696 13.066-23.558 19.53-5.526 4.16-11.062 8.318-16.355 12.988-3.403 2.991-6.622 6.108-9.995 9.157-3.471 3.145-6.583 6.802-9.889 10.228-9.772 10.044-18.498 21.44-22.589 34.408-1.473 4.525-2.53 8.886-3.19 13.836-.562 4.236-.183 8.916.107 13.161 1.358 21.797 11.45 41.124 28.542 54.382 5.322 4.12 10.877 7.815 16.956 10.44 1.221.521 3.45 1.891 4.78 1.891v.183c-20.476-2.508-38.828-9.706-54.582-21.526-3.015-2.2-5.74-4.825-8.415-7.45C7.146 383.488-2.374 355.989.505 326.154c1.31-13.894 4.576-26.833 10.034-38.624 9.23-19.993 24.334-36.04 41.252-51.352 3.742-3.088 7.435-6.146 11.11-9.224 6.388-5.076 12.583-10.296 18.875-15.641a3481.94 3481.94 0 018.706-7.565c8.483-7.999 17.305-15.699 25.129-24.46 9.404-10.653 18.468-21.44 26.263-32.884 4.692-6.899 8.958-13.981 13.214-21.034 3.315-5.462 6.059-11.27 8.676-17.098 9.123-20.852 14.988-45.1 15.783-70.013.262-7.941-.31-15.39-1.366-22.569-.437-2.47-.863-4.95-1.338-7.449-.369-1.708-.883-3.628-.66-5.529.175-1.457 1.31-2.132 2.443-2.711" fill="#254aa5"/></svg>
