<?xml version="1.0" encoding="UTF-8" standalone="no"?>
<svg
   height="533.33331"
   width="604.2016"
   viewBox="-78.0003 -114.7525 340.36821 459.00998"
   version="1.1"
   id="svg10"
   sodipodi:docname="fe7c9eb93cda5f02c5dda4cc76f60442.svg"
   xmlns:inkscape="http://www.inkscape.org/namespaces/inkscape"
   xmlns:sodipodi="http://sodipodi.sourceforge.net/DTD/sodipodi-0.dtd"
   xmlns="http://www.w3.org/2000/svg"
   xmlns:svg="http://www.w3.org/2000/svg">
  <defs
     id="defs14" />
  <sodipodi:namedview
     id="namedview12"
     pagecolor="#ffffff"
     bordercolor="#666666"
     borderopacity="1.0"
     inkscape:showpageshadow="2"
     inkscape:pageopacity="0.0"
     inkscape:pagecheckerboard="0"
     inkscape:deskcolor="#d1d1d1" />
  <path
     d="m -39.768898,128.2415 v 109.2 c 1.221,0 4.092,-1.617 5.362,-2.167 1.648,-0.734 3.596,-1.204 5.525,-1.3 4.75,-0.3 9.469,0.387 14.083,0.541 8.823,0.27 15.41000001,-2.07 21.45,-7.204 2.666,-2.296 4.562,-5.18 6.23,-8.016 7.61,-13.036 3.298,-27.256 -6.067,-37.484 -2.007,-2.2 -5.428,-5.872 -8.017,-6.933 0,-0.492 1.18100001,-1.808 1.46300001,-2.33 0.494,-1.012 0.78599999,-2.095 1.02899999,-3.195 1.512,-7.237 -1.40899999,-14.218 -5.471,-19.283 -3.926,-4.883 -9.246,-7.33 -14.733,-9.317 -2.589,-0.859 -5.217,-1.662 -7.854,-2.492 -1.91,-0.569 -3.953,-1.07 -5.688,-2.112 -1.842,-1.129 -3.345,-2.68 -4.712,-4.388 -0.844,-1.06 -1.746,-2.198 -2.221,-3.52 z m 16.466,26.379 c 4.886,2.605 11.42,6.956 10.238,13.758 -0.369,1.959 -1.195,3.683 -2.6,5.092 -1.31,1.215 -2.947,2.046 -4.604,2.654 -0.67,0.241 -1.36,0.463 -2.059,0.704 -0.32,0 -0.083,0.488 -0.054,0.758 0.32,2.326 1.142,4.363 2.654,6.013 1.154,1.225 2.705,1.795 4.063,2.654 4.275,2.779 9.486,4.776 12.404,9.262 4.01300001,6.156 3.06700001,16.184 -3.196,20.584 a 17.116,17.116 0 0 1 -4.496,2.22 c -0.911,0.242 -1.787,0.518 -2.708,0.759 -0.475,0.038 -1.018,0.066 -1.57,0.162 -2.609,-0.096 -5.228,-0.124 -7.855,-0.162 v -0.217 c -0.398,0 -0.217,-1.179 -0.217,-1.516 v -62.726 z m 183.299998,4.604 c -1.745,1.988 -4.01,3.424 -5.959,5.2 -2.56,2.21 -5.068,4.437 -7.637,6.608 v 0.217 h -0.217 v 0.217 c 1.047,0 1.781,1.474 2.004,2.275 0.272,1.032 0.09,2.47 0.109,3.629 v 44.145 c 0,2.837 0.56,11.917 -0.759,13.596 v 0.217 h -0.216 v 0.162 h 13.433 c 0,-0.337 -0.362,-0.705 -0.488,-0.975 a 7.513,7.513 0 0 1 -0.433,-2.275 c -0.262,-5.278 -0.054,-10.41 -0.054,-15.87 0.252,0 0.217,-0.025 0.217,0.216 0.804,0 1.737,0.812 2.329,1.246 4.479,3.088 7.218,7.368 8.07,12.675 0.253,1.341 0.395,3.408 -0.216,4.604 0,0.212 0.035,0.217 -0.217,0.217 v 0.162 h 13.434 c 0,-1.891 -0.356,-3.626 -0.705,-5.362 -1.328,-6.562 -4.062,-13.054 -9.316,-17.55 -0.766,-0.666 -1.526,-1.328 -2.438,-1.734 v -0.379 c 0.737,0 1.723,-1.12 2.275,-1.516 4.954,-4.063 7.695,-10.122 7.909,-16.684 h -8.83 c -1.095,0 -2.685,-0.196 -3.412,0.325 -0.02,0.03 0,0.026 0,0.054 h -0.108 c 0.135,0.58 0.199,1.155 0.325,1.734 v 2.329 c -0.398,3.145 -5.317,8.346 -8.342,9.533 v 0.217 h -0.38 v -34.83 c 0,-1.92 0.33,-11.574 -0.378,-12.403 z m 80.383,0 c -4.528,3.937 -9.084,7.862 -13.65,11.808 -0.262,0 -0.163,0.154 -0.163,0.434 0.95,0 1.677,1.57 1.842,2.275 0.02,1.34 0.025,2.72 0.054,4.062 v 43.929 c 0,2.808 0.599,11.7 -0.758,13.38 v 0.216 h -0.163 v 0.162 h 13.488 c 0,-0.241 0,-0.162 -0.271,-0.162 -0.097,-0.454 -0.278,-0.974 -0.433,-1.409 -0.097,-0.694 -0.174,-1.382 -0.271,-2.058 0,-5.162 -0.054,-10.33 -0.054,-15.491 h 0.379 c 0,0.308 0.65,0.55 0.92,0.704 5.197,2.865 9.232,8.391 9.426,14.625 0.048,1.186 0.101,2.467 -0.325,3.412 0,0.212 0.045,0.217 -0.217,0.217 v 0.162 h 13.433 c 0,-7.67 -3.824,-16.912 -8.991,-22.046 -1.047,-1.032 -2.168,-2.078 -3.467,-2.6 v -0.379 c 0.873,0 2.068,-1.317 2.708,-1.896 4.654,-4.37 7.227,-9.675 7.421,-16.304 -1.59,0 -11.61,-0.236 -12.133,0.217 -0.116,0.039 0.43,3.604 0.216,4.55 -0.736,3.02 -5.345,8.147 -8.341,9.208 v 0.217 h -0.433 v -43.983 c 0,-1.062 0.103,-2.391 -0.217,-3.25 z m -156.215998,32.879 c -1.193,0.396 -2.505,0.504 -3.63,1.083 -0.901,0.425 -1.787,0.974 -2.708,1.409 v 0.162 h -0.162 c 0,-0.579 -1.112,-2.063 -1.625,-2.275 -0.95,-0.425 -2.46,-0.217 -3.575,-0.217 h -6.5 c -0.94,0.039 -1.882,0.08 -2.871,0.109 -0.175,0.096 -0.402,0.184 -0.596,0.27 -0.184,0.55 0.957,2.004 1.083,2.709 0,1.495 0.045,2.96 0.054,4.387 v 35.588 h 0.163 c 0,0.308 0.881,0.162 1.192,0.162 h 11.158 v -21.016 c 0,-1.863 -0.389,-5.388 0.27,-6.825 0.98,-2.2 3.8,-3.638 6.176,-3.088 1.415,0.338 3.104,1.679 3.52,3.088 0.495,1.61 0.163,3.978 0.163,5.85 v 14.516 c 0,1.698 -0.346,4.014 0.217,5.471 0.3,0.859 1.21,1.639 2.112,1.842 1.173,0.29 2.586,0.124 3.846,0.162 h 8.232998 v -0.162 c -0.969998,0 -1.527998,-2.033 -1.624998,-2.709 -0.048,-1.736 -0.108,-3.428 -0.108,-5.145 v -16.684 c 0,-4.785 0.129,-9.263 -2.004,-12.891 -0.67,-1.197 -1.888,-2.337 -2.925,-3.196 -1.26,-1.1 -2.556,-1.918 -4.117,-2.275 -1.784,-0.405 -3.783,-0.325 -5.741,-0.325 z m -48.534,0.108 c -1.284,-0.009 -2.62,0.054 -3.845,0.054 -0.825,0.28 -1.643,0.454 -2.438,0.705 -1.435,0.54 -3.333,2.017 -4.225,3.358 -3.539,5.066 -3.574,12.396 -4.767,18.687 -0.242,1.776 -0.51,3.558 -0.704,5.363 -0.203,1.428 -0.42,3.108 -0.216,4.604 0.358,2.47 1.767,4.684 3.629,6.392 3.626,3.3 9.745,4.758 15.058,3.9 0.746,-0.155 1.492,-0.363 2.112,-0.759 0.572,-0.366 1.15,-1.137 1.896,-1.137 0.766,-0.03 1.137,0.821 1.68,1.246 a 3.744,3.744 0 0 0 1.787,0.812 c 3.858,0.029 7.689,0.016 11.537,0.054 v -0.162 c -2.045,0 -2.232,-7.3 -2.058,-9.046 0.272,-2.837 0.163,-5.946 0.163,-8.937 v -13.759 c 0,-2.412 -0.396,-5.664 0.108,-7.854 0.223,-1.071 1.06,-2.45 1.787,-3.25 v -0.217 h -9.425 c -1.105,0 -2.54,-0.179 -3.412,0.217 -0.805,0.338 -1.131,1.134 -1.354,1.896 h -0.217 v -0.217 c -0.368,0 -0.818,-0.53 -1.137,-0.704 -0.747,-0.396 -1.554,-0.747 -2.33,-0.92 -1.12,-0.247 -2.344,-0.317 -3.629,-0.326 z m 84.824998,0 c -1.287,-0.015 -2.595,0.054 -3.846,0.054 -0.804,0.28 -1.584,0.463 -2.437,0.705 -1.6,0.646 -3.492,2.054 -4.442,3.52 -3.354,5.037 -3.342,11.85 -4.496,17.93 -0.63,3.203 -1.494,7.433 -1.029,10.887 0.184,1.486 0.97,2.905 1.842,4.062 3.46,4.458 9.214,6.546 15.166,6.121 2.356,-0.212 4.497,-0.987 6.717,-1.354 v 9.046 c -0.03,1.187 0.128,2.479 -0.162,3.52 -0.136,0.609 -0.44,1.118 -0.867,1.572 -1.28,1.302 -2.585,1.35 -4.117,2.112 -4.188,0 -11.802,0.448 -14.245,-2.437 h -0.163 v -0.217 c -0.368,0 -0.217,1.179 -0.217,1.517 v 14.57 h 0.217 c 0,-2.412 7.146,-2.008 9.046,-2.22 3.52,-0.396 7.248,-0.109 10.67,-0.813 3.976,-0.82 7.979,-3.708 9.588,-7.53 2.598,-5.924 2.167,-13.429 2.167,-20.637 v -32.282 c 0,-1.457 -0.119,-3.094 0.162,-4.387 0.262,-1.187 1.09,-2.176 1.517,-3.304 0.32,0 0.27,-0.1 0.27,-0.38 h -8.883 c -1.221,0 -2.71,-0.179 -3.737,0.217 -0.882,0.25 -1.269,1.105 -1.463,1.896 -0.445,0 -1.173,-0.778 -1.57,-1.03 -0.67,-0.24 -1.316,-0.482 -2.005,-0.703 -1.105,-0.304 -2.396,-0.418 -3.683,-0.434 z m 82.875,0 c -1.49,0.003 -2.953,0.054 -4.388,0.054 -0.523,0.164 -1.012,0.273 -1.516,0.38 -5.43,0 -9.126,4.605 -10.454,9.208 -0.96,3.3 -1.158,7.063 -1.517,10.508 -0.388,3.397 -0.982,7.412 -0.488,11.05 0.62,4.178 3.532,8.145 7.313,10.075 4.993,2.528 13.148,2.65 18.741,1.03 4.111,-1.226 7.712,-4.446 9.263,-8.45 1.997,-4.883 0.3,-13.602 -0.38,-18.85 -0.222,-2.017 -0.472,-4.11 -1.083,-5.905 -0.707,-2.18 -1.957,-4.416 -3.683,-6.066 -2.872,-2.707 -7.337,-3.044 -11.808,-3.034 z m -165.424998,9.859 c 2.007,0 3.878,-0.018 4.984,1.516 0.572,0.772 0.73,17.062 0.216,18.471 -0.504,1.428 -1.883,2.925 -3.25,3.63 -0.504,0.211 -1.003,0.383 -1.516,0.595 -2.308,0 -4.111,-0.854 -4.984,-2.87 -0.591,-1.38 -0.456,-2.713 -0.379,-4.334 0.049,-4.854 0.695,-12.451 3.196,-15.925 0.446,-0.647 1.132,-0.775 1.733,-1.083 z m 84.662998,0 c 1.783,0 4.072,-0.117 4.983,1.408 0.65,0.917 0.66,17.872 0.108,19.175 -0.92,1.988 -2.4,2.847 -4.116,4.062 -2.075,0 -3.482,-0.22 -4.713,-1.841 -2.676,-3.725 -0.404,-18.425 2.058,-21.667 0.485,-0.646 1.01,-0.8 1.68,-1.137 z m 79.245,0.541 c 1.774,0 3.352,-0.009 4.496,1.246 2.046,2.171 1.874,7.384 2.058,10.617 0.087,1.38 0.283,2.988 0.109,4.387 -0.146,1.92 -0.649,3.716 -1.463,5.309 -0.688,1.254 -1.833,1.754 -2.87,2.545 -1.775,0 -3.17,-0.059 -4.334,-1.245 -2.87,-2.876 -2.243,-9.118 -2.058,-13.325 0.135,-2.837 0.21,-5.983 1.733,-8.125 0.591,-0.888 1.457,-0.955 2.33,-1.409 z m -250.789998,5.58 c -0.495,1.312 -1.407,2.554 -2.222,3.683 -4.023,5.278 -10.058,6.9 -15.816,9.1 -3.733,1.408 -7.404,3.304 -10.671,5.687 -11.042,7.903 -15.284,20.902 -17.387,33.908 -0.67,4.005 -1.355,8.12 -1.355,12.405 h -0.162 c 0,0.299 -2.257,0.186 -2.654,0.379 -0.989002,0 -2.254002,-0.204 -3.088002,0.162 -3.587,0 -6.827,0.029 -9.804,-0.975 -1.997,-0.666 -3.62,-1.92 -5.579,-2.654 v -0.162 h -0.162 c 0,6.6 2.442,11.166 8.016,14.408 1.726,0.974 3.654,1.93 5.796,2.112 1.871,0.184 3.815,0.018 5.580002,-0.108 0,1.293 -1.215,4.108 -1.680002,5.363 -3.267,8.722 -9.72,15.525 -18.037,19.77 -1.92,0.975 -3.9,2.142 -6.013,2.817 v 0.38 c 0.553,0.27 1.107,0.478 1.68,0.757 0.872,0.31 1.673,0.651 2.545,0.921 3.636,0.82 7.93,1.22 12.08,0.921 16.713002,-1.312 23.765002,-16.604 24.753002,-31.85 3.335,0 6.78,-0.88 10.184,-0.541 1.435,0.144 2.926,0.32 4.225,0.812 0.911,0.367 1.781,0.73 2.654,1.03 0,-1.525 -0.825,-3.264 -1.3,-4.605 -2.463,-6.387 -7.582,-8.117 -14.03,-8.937 0.476,-3.06 0.988,-6.067 1.463,-9.155 1.503,-8.085 4.39,-28.182 14.842,-28.491 v 72.8 c 0,1.775 0.235,3.933 -0.163,5.525 -0.261,1.186 -1.146,2.642 -2.329,3.25 0,0.337 1.744,0.216 2.113,0.216 h 18.85 v -0.216 c -0.912,0 -1.658,-1.265 -1.842,-1.95 -0.66,-2.017 -0.325,-4.86 -0.325,-7.204 v -92.138 c 0,-2.19 0.439,-5.5 -0.162,-7.42 z m 12.674,43.333 v 0.216 c -1.367,0 -2.803,0.8 -3.791,1.571 -6.777,5.432 -2.68,16.876 6.229,15.708 9.375,-1.196 10.83,-14.409 1.95,-17.062 -1.348,-0.396 -2.778,-0.433 -4.388,-0.433 z m 205.507998,21.45 c -0.679,0.299 -1.395,0.583 -2.113,0.92 -0.446,0.058 -0.869,0.15 -1.354,0.217 h -8.07 c -1,0 -2.417,-0.15 -3.25,0.217 -3.84,0 -7.525,1.887 -9.696,4.82 -4.43,5.896 -0.468,12.701 4.495,16.792 3.268,2.683 6.776,3.91 8.017,8.396 0.31,1.1 0.17,2.124 -0.596,2.925 -1.9,1.853 -7.417,-0.728 -9.046,-1.896 -0.862,-0.733 -1.702,-1.487 -2.545,-2.22 v -0.163 c -0.466,0 -0.36,0.77 -0.38,1.137 -0.01,4.767 0,9.559 0,14.354 h 0.38 c 0,-0.25 0.051,-0.263 0.216,-0.379 1.639,-1.042 3.694,-0.975 5.904,-0.975 h 7.475 c 1.067,-0.029 2.165,-0.089 3.25,-0.108 2.822,-0.618 5.36,-2.492 7.096,-4.875 6.215,-8.82 -1.516,-16.084 -7.691,-21.883 -1.387,-1.322 -4.136,-2.468 -4.117,-4.659 0,-0.743 0.192,-1.213 0.812,-1.57 0.592,-0.406 1.417,-0.62 2.221,-0.38 2.24,0.589 2.938,1.95 5.904,1.95 0.737,0 1.433,-0.099 2.005,-0.379 0.736,-0.299 1.125,-0.92 1.3,-1.625 0.252,-1.129 0.355,-10.192 -0.217,-10.616 z m -35.262,0.812 c -3.083,0.027 -6.033,0.24 -6.663,0.867 -1.328,1.283 -0.867,4.114 -0.867,6.12 v 15.492 c 0,3.204 0.42,7.021 -0.812,9.588 -1.067,2.2 -1.96,2.245 -3.792,3.412 -3.025,0 -4.676,-2.98 -5.47,-5.362 -0.796,-2.413 -0.68,-6.255 -0.921,-8.938 -0.524,-6.05 -1.057,-12.105 -1.571,-18.146 0.029,-1.158 0.597,-2.283 1.625,-2.708 v -0.217 h -12.675 c -0.882,0.608 -1.626,1.125 -2.004,2.167 -0.475,1.37 -0.12,3.122 0.054,4.55 0.426,3.232 0.854,6.463 1.3,9.696 1.338,7.237 1.291,19.413 6.662,24.266 1.028,0.888 2.147,1.441 3.359,2.059 1.6,0.79 3.39,1.538 5.416,1.625 2.637,0.144 6.152,0.438 8.45,-0.759 h 0.38 v 6.5 c -0.078,3.127 -0.11,5.518 -2.6,7.313 -1.164,0.83 -2.517,0.826 -3.738,1.462 -3.723,0 -8.569,0.074 -10.78,-3.033 h -0.216 v -0.217 c -0.32,0 -0.108,1.046 -0.108,1.355 v 13.379 h 0.325 c 0,-0.338 0.373,-0.322 0.596,-0.38 1.144,-0.492 2.621,-0.35 4.008,-0.379 2.259,-0.067 4.775,-0.09 7.15,-0.216 1.61,-0.049 3.446,-0.083 4.929,-0.488 4.624,-1.216 10.86,-5.405 12.837,-10.075 2.056,-4.979 1.409,-11.633 1.409,-17.712 v -34.992 c 0,-1.466 -0.255,-3.238 0.162,-4.55 0.175,-0.588 0.614,-1.074 1.138,-1.354 v -0.217 c -1.29,0 -4.5,-0.134 -7.584,-0.108 z m -46.366998,0.054 c -0.749,0.01 -1.476,0.119 -2.004,0.38 -0.766,0.308 -1.02,1.007 -1.408,1.624 v 0.163 h -0.109 c 0,-0.319 -0.585,-0.55 -0.866,-0.704 -2.812,-1.621 -6.283,-1.409 -9.967,-1.409 -0.863,0.3 -1.762,0.562 -2.654,0.813 -1.319,0.511 -3.053,1.767 -3.954,2.925 -1.106,1.476 -2.017,3.277 -2.492,5.091 -1.396,5.346 -1.993,11.072 -2.817,16.63 -0.368,2.508 -1.058,5.67 -0.379,8.179 0.65,2.499 2.408,4.728 4.55,6.445 3.054,2.413 9.951,3.83 14.246,2.817 0.775,-0.154 1.418,-0.334 2.058,-0.758 0.514,-0.338 0.966,-1 1.625,-1.03 0.824,-0.057 1.13,0.803 1.625,1.246 0.514,0.406 1.088,0.633 1.68,0.759 1.463,0.029 2.933,0.08 4.387,0.108 h 7.258 v -0.162 c -0.33,0 -0.53,-0.4 -0.704,-0.65 -1.512,-2.51 -1.246,-5.988 -1.246,-9.317 v -19.5 c 0.049,-3.232 0.114,-6.479 0.163,-9.75 0.164,-1.158 1.04,-2.741 1.787,-3.629 v -0.217 h -8.558 c -0.684,0 -1.472,-0.063 -2.221,-0.054 z m -125.07,0.054 c -1.047,0.705 -1.63,1.292 -1.95,2.546 -0.068,1.061 -0.085,2.125 -0.163,3.196 v 27.354 c 0,2.22 0.393,6.793 -0.325,8.558 -0.233,0.55 -0.577,0.891 -0.975,1.354 h -0.27 v 0.217 h 15.6 v -0.217 c -2.996,0 -2.276,-6.612 -2.276,-8.937 v -21.612 c -0.048,-3.146 -0.593,-6.955 -0.108,-10.13 0.155,-0.849 0.46,-1.716 1.246,-2.112 v -0.217 h -10.78 z m 15.762,0 c 1.357,2.046 0.758,8.359 0.758,11.321 -0.02,9.89 0,19.739 0,29.63 -0.097,0.732 -0.264,1.355 -0.758,1.895 v 0.162 h -0.217 v 0.217 h 13.867 v -0.217 c -1.309,0 -0.975,-7.432 -0.975,-8.937 v -8.992 c 0,-1.833 -0.318,-4.024 0.108,-5.741 0.844,-3.426 3.663,-5.884 6.988,-6.771 2.26800001,-0.618 5.515,0.332 7.096,1.625 h 0.216 c -0.436,-3.242 -0.844,-6.543 -1.3,-9.804 -0.135,-0.801 -0.08,-1.964 -0.487,-2.6 -0.563,-0.82 -1.6,-1.212 -2.492,-1.463 -4.043,-1.158 -6.773,1.242 -9.37,3.683 -1.833,0 -1.355,-2.6 -1.355,-4.008 z m 30.117,0 c 0.523,0.521 0.988,0.934 1.191,1.571 0.533,1.65 0.253,3.701 0.38,5.525 0.184,3.425 0.392,6.866 0.595,10.292 0.592,9.822 3.707,16.493 11.104,22.533 1.26,1.042 2.49,2.45 3.955,3.087 0,0.3 0.196,0.217 0.487,0.217 0.504,-1.312 0.949,-2.667 1.463,-4.008 1.192,-2.866 2.328,-5.776 3.52,-8.613 a 503.767,503.767 0 0 1 1.734,-4.008 c 0.339,-0.521 0.936,-0.909 1.625,-0.813 0.465,0.097 0.856,0.446 1.137,0.813 1.105,1.746 1.677,3.988 2.492,5.85 1.512,3.416 3.213,7.2 4.279,10.78 h 0.38 c 0,-0.252 0.184,-0.255 0.378,-0.38 1.833,-1.187 3.504,-2.797 5.2,-4.225 a 86.076,86.076 0 0 1 2.763,-2.546 c 1.56,-1.988 2.874,-4.271 4.008,-6.5 3.044,-5.857 3.02,-15.271 3.358,-22.479 0.059,-1.862 -0.018,-3.639 0.38,-5.308 0.126,-0.676 0.57,-1.233 1.191,-1.571 v -0.217 h -11.32 c -1.687,0 -3.563,-0.17 -4.93,0.38 -0.116,0.24 0.476,0.67 0.65,0.92 1.26,1.467 0.978,9.825 0.542,12.025 -0.29,1.428 -0.586,2.919 -0.867,4.28 h -0.216 c -0.446,-0.879 -0.959,-1.792 -1.463,-2.709 -1.493,-2.75 -2.951,-5.616 -4.929,-8.125 -0.93,-1.216 -2.048,-2.266 -2.98,-3.52 -2.685,0 -8.395,12.062 -9.966,14.137 v 0.216 h -0.216 c -0.31,-1.428 -0.62,-2.92 -0.921,-4.387 -0.437,-2.933 -0.394,-6.4 -0.054,-9.37 0.077,-0.541 0.13,-1.14 0.216,-1.68 0.194,-0.676 0.728,-1.324 1.3,-1.788 v -0.162 h 0.271 v -0.217 z m 70.85,9.75 c 1.706,0 3.793,-0.012 4.82,1.3 0.281,0.396 0.42,0.859 0.488,1.409 v 11.862 c 0,1.775 0.402,4.354 -0.325,5.85 -0.572,1.293 -1.71,2.482 -2.98,3.196 -0.504,0.241 -0.958,0.463 -1.462,0.704 -1.726,0 -3.251,-0.313 -4.28,-1.625 -2.8,-3.763 -0.508,-18.15 1.897,-21.45 0.484,-0.637 1.192,-0.937 1.841,-1.246 z"
     fill="#254aa5"
     id="path2" />
  <path
     d="m -73.938898,106.2175 c 0.369,1.13 -0.203,2.142 0.175,3.05 0,1.746 0.029,3.425 0.029,5.19 -0.33,8.154 -0.853,16.182 -0.853,24.306 0,7.546 -0.369,12.766 -0.369,17.648 0.04,1.283 -0.223,8.124 -0.174,9.379 0.048,4.178 -0.834,8.028 -1.357,11.993 -1.639,12.95 -7.834,24.432 -17.693,33.135 -3.5,3.049 -7.087002,5.616 -10.975002,7.844 -1.221,0.59 -2.453,1.226 -3.693,1.834 -0.136,0.029 -0.243,0.087 -0.417,0.087 h -0.504 a 488.177,488.177 0 0 0 -6.04,-3.812 c -4.237,-2.44 -9.104,-4.313 -14.155,-5.046 -2.414,-0.328 -5.235,-0.695 -7.862,-0.328 -15.88,2.016 -31.983,14.29 -39.264,28.426 -2.21,4.274 -3.916,8.577 -4.847,13.556 -0.601,3.484 -0.66,7.941 -0.242,11.637 1.29,13.682 6.224,24.817 15.715,34.283 5.05,5.007 10.296,9.07 15.9,12.862 2.054,1.273 4.178,2.586 6.204,3.907 0.203,0.087 0.368,0.087 0.368,0.396 h 0.233 v 0.174 c -8.357,-0.27 -17.887,-5.124 -24.218,-9.485 -4.634,-3.242 -9.132,-6.32 -13.252,-10.575 -2.278,-2.287 -4.188,-4.883 -5.943,-7.44 -2.026,-3 -4.169,-5.953 -5.73,-9.195 -4.382,-9.1 -6.844,-20.581 -6.117,-32.112 0.446,-6.908 2.007,-13.315 4.16,-19.336 1.201,-3.358 3.111,-6.388 4.914,-9.437 9.346,-15.294 25.769,-24.981 39.991,-34.591 9.18,-6.147 18.333,-12.4 27.533,-18.565 8.803,-5.953 17.547,-11.752 25.129002,-19.761 6.883,-7.324 12.419,-15.901 16.471,-24.663 1.687,-3.724 5.487,-11.54 6.883,-15.36"
     fill="#ed1c24"
     id="path4" />
  <path
     d="m -75.304898,65.7595 c 0.368,1.033 0.213,2.5 0.213,3.783 v 8.24 c 0,5.288 -0.214,11.694 -0.825,16.644 -1.415,11.212 -6.553,19.732 -12.108,28.89 -1.93,3.135 -4.12,5.982 -6.156,9.002 -1.833,2.653 -3.81,5.374 -6.098002,7.719 -3.742,3.86 -7.824,7.362 -11.954,10.479 -6.602,4.91 -12.981,9.735 -19.961,13.952 -7.107,4.274 -13.873,9.099 -20.728,13.74 -14.639,9.832 -29.704,21.102 -39.893,36.116 -2.9,4.255 -4.877,8.983 -6.71,13.74 -2.888,7.459 -4.488,16.278 -3.906,25.406 0.504,8.279 3.044,15.727 5.991,22.78 1.968,4.546 4.198,8.974 7.145,13.066 3.345,4.863 7.863,9.407 12.497,13.344 4.74,4.033 9.471,7.729 14.561,11.087 0.698,0.492 7.184,3.628 7.95,3.628 0,0.067 -4.537,-0.82 -4.537,-0.695 -9.249,-1.92 -17.906,-6.909 -24.848,-12.553 -16.995,-13.982 -28.328,-33.25 -29.346,-55.81 -0.397,-7.873 0.058,-15.544 2.598,-22.144 10.364,-26.863 35.619,-47.598 58.527,-64.754 7.989,-6.079 15.977,-12.158 23.966,-18.17 5.148,-3.907 10.315,-7.815 15.482,-11.732 a 341.528,341.528 0 0 1 4.625,-4.545 c 8.24,-8.24 15.492002,-16.972 21.367002,-26.563 1.667,-2.74 3.393,-5.471 4.818,-8.327 2.511,-5.201 4.508,-10.933 5.652,-16.8 0.62,-3.116 1.503,-6.261 1.677,-9.523"
     fill="#b49142"
     id="path6" />
  <path
     d="m -77.757898,-114.7525 c 1.512,0 2.995,0 3.839,1.254 1.018,1.457 0.543,5.645 0.543,7.758 0.077,10.489 0.542,114.128 0.542,120.65 0.146,7.189 -0.067,15.883 -0.174,23.158 -0.29,19.626 -6.99,37.177 -15.55,52.664 -3.268,5.828 -5.963,11.82 -10.597,17.01 -3.286002,3.687 -6.602002,7.353 -10.237002,10.779 -7.145,6.648 -14.678,12.553 -22.24,18.38 -7.853,6.533 -15.696,13.066 -23.558,19.53 -5.526,4.16 -11.062,8.318 -16.355,12.988 -3.403,2.991 -6.622,6.108 -9.995,9.157 -3.471,3.145 -6.583,6.802 -9.889,10.228 -9.772,10.044 -18.498,21.44 -22.589,34.408 -1.473,4.525 -2.53,8.886 -3.19,13.836 -0.562,4.236 -0.183,8.916 0.107,13.161 1.358,21.797 11.45,41.124 28.542,54.382 5.322,4.12 10.877,7.815 16.956,10.44 1.221,0.521 3.45,1.891 4.78,1.891 v 0.183 c -20.476,-2.508 -38.828,-9.706 -54.582,-21.526 -3.015,-2.2 -5.74,-4.825 -8.415,-7.45 -19.419,-19.393 -28.939,-46.892 -26.06,-76.727 1.31,-13.894 4.576,-26.833 10.034,-38.624 9.23,-19.993 24.334,-36.04 41.252,-51.352 3.742,-3.088 7.435,-6.146 11.11,-9.224 6.388,-5.076 12.583,-10.296 18.875,-15.641 a 3481.94,3481.94 0 0 1 8.706,-7.565 c 8.483,-7.999 17.305,-15.699 25.129,-24.46 9.404,-10.653 18.468,-21.44 26.263,-32.884 4.692,-6.899 8.958,-13.981 13.214,-21.034 3.315002,-5.462 6.059002,-11.27 8.676002,-17.098 9.123,-20.852 14.988,-45.1 15.783,-70.013 0.262,-7.941 -0.31,-15.39 -1.366,-22.569 -0.437,-2.47 -0.863,-4.95 -1.338,-7.449 -0.369,-1.708 -0.883,-3.628 -0.66,-5.529 0.175,-1.457 1.31,-2.132 2.443,-2.711"
     fill="#254aa5"
     id="path8" />
</svg>
