<svg xmlns="http://www.w3.org/2000/svg" version="1.0" width="1000" height="1000" viewBox="-50 -50 1000 1000" preserveAspectRatio="xMidYMid meet">

<g transform="translate(0.000000,800.000000) scale(0.100000,-0.100000)" fill="#000000" stroke="none">
<path d="M5039 6654 c-10 -12 -8 -40 7 -137 26 -170 24 -390 -5 -562 -59 -345 -143 -563 -334 -867 -238 -380 -451 -607 -977 -1045 -261 -217 -411 -370 -517 -528 -53 -79 -135 -244 -161 -325 -167 -515 -22 -1034 365 -1309 135 -97 307 -173 466 -206 98 -21 106 -19 43 14 -184 97 -349 270 -421 440 -54 130 -69 206 -69 361 0 133 2 152 28 230 16 47 41 110 56 140 77 153 304 395 575 612 176 141 370 300 510 416 95 79 205 197 250 267 53 83 164 310 191 393 62 190 59 131 59 1137 0 506 -2 931 -5 944 -7 31 -44 46 -61 25z"/>
<path d="M5040 3964 c-74 -160 -153 -276 -250 -367 -53 -50 -184 -146 -382 -279 -481 -324 -560 -388 -647 -521 -128 -197 -147 -482 -47 -700 65 -143 170 -255 326 -351 121 -75 288 -121 180 -50 -139 91 -257 209 -305 304 -70 139 -93 306 -60 430 42 157 174 314 328 390 156 78 266 76 425 -6 l84 -43 52 29 c181 104 293 269 326 483 9 61 34 786 27 793 -2 2 -27 -49 -57 -112z"/>
<path d="M5500 3204 c0 -343 2 -624 4 -624 2 0 21 8 42 17 31 13 71 17 194 17 146 1 158 3 212 28 69 32 129 92 165 166 24 49 28 70 28 142 0 75 -4 93 -32 153 -23 48 -54 90 -100 136 -68 67 -68 68 -54 97 35 70 4 193 -67 267 -46 48 -102 77 -217 113 -73 22 -98 35 -132 69 l-43 42 0 -623z m241 301 c39 -29 69 -78 69 -113 0 -38 -32 -81 -73 -99 -33 -15 -37 -21 -32 -43 9 -36 28 -54 104 -99 105 -63 141 -111 141 -189 -1 -111 -90 -185 -212 -174 l-48 4 0 369 c0 203 4 369 8 369 4 0 24 -11 43 -25z"/>
<path d="M7738 3412 c-50 -43 -74 -70 -68 -76 6 -6 10 -151 10 -373 l0 -363 68 0 67 0 -3 110 c-2 60 0 110 5 110 5 0 25 -13 45 -30 44 -36 78 -103 78 -153 l0 -37 75 0 c41 0 75 3 75 8 0 4 -8 37 -18 73 -22 79 -63 151 -100 179 l-28 21 42 43 c39 41 74 116 74 158 0 17 -7 19 -67 16 l-68 -3 -3 -38 c-2 -27 -14 -48 -41 -77 -21 -22 -43 -40 -49 -40 -8 0 -12 76 -14 269 l-3 269 -77 -66z"/>
<path d="M8668 3410 c-42 -38 -72 -72 -68 -76 5 -5 10 -172 11 -372 l1 -362 69 0 68 0 3 110 3 110 38 -31 c47 -39 77 -96 77 -149 l0 -40 76 0 76 0 -7 43 c-13 75 -45 145 -90 195 l-44 49 25 24 c38 35 72 98 80 147 l7 42 -67 0 c-64 0 -66 -1 -66 -25 0 -37 -23 -77 -67 -115 l-38 -34 -5 276 -5 276 -77 -68z"/>
<path d="M6292 3085 c-42 -19 -66 -71 -87 -193 -24 -140 -24 -185 1 -219 43 -60 154 -91 219 -61 19 9 28 9 37 0 7 -7 41 -12 78 -12 l65 0 -3 230 c-2 155 1 237 8 251 11 20 10 21 -67 15 -43 -3 -85 -5 -93 -6 -8 0 -40 2 -70 5 -38 4 -65 1 -88 -10z m149 -105 c17 -10 19 -22 19 -125 0 -111 -1 -114 -26 -134 -33 -26 -49 -26 -74 -1 -46 46 -8 270 46 270 8 0 24 -5 35 -10z"/>
<path d="M6694 3078 c3 -13 6 -125 6 -250 l0 -228 70 0 70 0 0 160 c0 147 2 162 20 180 25 25 62 26 83 2 14 -16 17 -43 17 -168 0 -103 4 -154 12 -162 7 -7 40 -12 78 -12 l65 0 -6 192 c-6 209 -14 244 -66 282 -35 26 -100 32 -145 13 -32 -13 -38 -14 -49 -1 -8 10 -34 14 -86 14 -73 0 -75 -1 -69 -22z"/>
<path d="M7280 3082 c-23 -11 -42 -32 -57 -62 -25 -51 -60 -270 -50 -311 10 -39 62 -85 113 -99 28 -8 66 -10 104 -6 l60 7 0 -69 c0 -100 -16 -117 -107 -117 -37 0 -80 3 -95 8 l-28 7 0 -78 0 -78 88 8 c157 15 171 18 203 46 61 51 63 65 69 412 3 173 9 323 14 333 7 15 1 17 -61 17 -38 0 -74 -5 -80 -11 -9 -9 -20 -9 -44 0 -46 16 -89 14 -129 -7z m150 -102 c12 -7 15 -33 15 -125 0 -111 -1 -118 -24 -136 -13 -10 -33 -19 -46 -19 -38 0 -50 26 -49 104 3 143 44 214 104 176z"/>
<path d="M8232 3090 c-82 -19 -114 -95 -116 -271 -1 -131 8 -155 74 -193 47 -28 167 -34 225 -12 93 36 123 107 105 250 -14 116 -26 154 -58 189 -41 43 -138 59 -230 37z m115 -118 c22 -14 33 -62 33 -141 0 -64 -4 -83 -21 -105 -25 -31 -59 -34 -85 -5 -27 30 -27 209 1 239 18 20 50 26 72 12z"/>
<path d="M5356 2864 c-18 -23 -52 -47 -95 -66 -166 -73 -210 -100 -264 -158 -82 -88 -134 -231 -154 -419 l-6 -59 -43 -6 c-55 -7 -130 2 -167 21 -37 19 -43 12 -29 -36 24 -77 94 -131 172 -131 50 0 52 -14 9 -99 -39 -79 -117 -157 -199 -199 l-62 -32 28 -11 c16 -6 59 -14 95 -16 178 -14 304 96 340 297 l12 68 58 7 c32 4 67 4 78 1 69 -20 64 -22 46 21 -21 51 -66 90 -120 104 -45 11 -45 12 -40 48 36 218 65 310 116 363 72 76 69 94 69 -425 0 -347 -3 -466 -12 -475 -9 -9 12 -12 98 -12 l109 0 -3 457 c-1 252 -3 533 -5 626 l-2 167 -29 -36z"/>
<path d="M5513 2400 c-70 -29 -74 -148 -6 -179 70 -32 143 13 143 88 0 71 -72 119 -137 91z"/>
<path d="M7820 2149 c-113 -8 -138 -17 -173 -59 -50 -59 -23 -144 64 -206 45 -33 79 -77 79 -103 0 -6 -9 -15 -20 -21 -22 -12 -79 7 -112 37 -17 15 -18 12 -18 -68 l0 -84 102 4 c112 3 145 14 176 58 50 72 29 140 -74 239 -47 45 -65 68 -60 80 5 12 13 15 34 9 66 -16 94 -17 103 -4 11 17 12 116 2 121 -5 2 -51 1 -103 -3z"/>
<path d="M5512 2137 c-7 -8 -12 -101 -14 -250 l-3 -237 78 0 c75 0 77 1 67 20 -7 13 -10 100 -8 250 l3 230 -56 0 c-34 0 -61 -5 -67 -13z"/>
<path d="M5715 1900 l0 -250 70 0 70 0 -3 141 c-3 158 2 177 63 206 28 13 41 14 70 6 33 -10 35 -10 30 10 -2 12 -7 43 -10 69 -9 73 -60 87 -124 36 l-26 -20 -9 26 c-9 24 -14 26 -70 26 l-61 0 0 -250z"/>
<path d="M6064 2141 c3 -4 10 -64 15 -132 6 -68 15 -141 21 -161 15 -50 67 -125 116 -165 l41 -33 40 97 c53 128 64 128 114 8 21 -49 40 -94 41 -98 2 -4 28 15 59 42 82 73 108 137 120 299 5 70 11 133 14 140 3 9 -18 12 -84 12 l-89 0 9 -37 c9 -40 2 -150 -11 -158 -4 -2 -19 18 -34 45 -15 28 -39 64 -53 80 l-26 31 -21 -20 c-12 -12 -37 -48 -56 -81 -20 -35 -38 -56 -43 -51 -10 10 -12 165 -2 181 4 6 -25 10 -85 10 -50 0 -89 -4 -86 -9z"/>
<path d="M6771 2132 c-46 -23 -66 -67 -86 -187 -24 -140 -23 -189 2 -223 35 -46 80 -66 148 -65 33 1 71 2 85 2 14 0 57 -2 95 -5 l70 -5 -3 236 c-2 171 0 241 9 251 10 12 0 14 -63 14 -41 0 -79 -5 -84 -10 -8 -8 -19 -8 -38 0 -41 15 -97 12 -135 -8z m157 -104 c8 -8 12 -50 12 -124 0 -110 -1 -113 -26 -133 -33 -26 -49 -26 -74 -1 -15 15 -20 33 -20 78 1 67 15 138 36 170 16 24 53 29 72 10z"/>
<path d="M7139 2134 c-11 -13 -9 -43 9 -177 26 -193 35 -227 68 -267 32 -37 83 -53 157 -49 l57 4 0 -63 c0 -53 -4 -67 -25 -87 -20 -21 -34 -25 -80 -25 -31 0 -65 5 -76 10 -18 10 -19 7 -19 -66 l0 -76 98 7 c108 8 141 18 191 61 63 53 65 65 71 422 l5 322 -70 0 c-38 0 -75 -4 -82 -8 -8 -5 -13 -62 -15 -184 -3 -166 -4 -179 -25 -199 -29 -30 -66 -19 -85 23 -16 35 -44 340 -33 358 4 6 -19 10 -63 10 -51 0 -73 -4 -83 -16z"/>
</g>
</svg>
